<svg xmlns="http://www.w3.org/2000/svg" viewBox="0 0 898 240"><polygon points="392.19 78.45 392.13 100.75 372.19 89.24 371.9 189.21 358.91 181.71 359.19 81.74 339.35 70.28 339.42 47.98 392.19 78.45"/><polygon points="442.67 107.59 442.61 129.9 413.29 112.97 413.22 139.65 439.81 155 439.75 176.72 413.16 161.37 413.07 190.44 442.39 207.36 442.32 229.87 400.31 205.61 400.66 83.34 442.67 107.59"/><polygon points="503.4 79.22 483.86 150.14 504.72 200.94 490.73 209.01 476.64 174.65 462.88 225.1 449.19 233 469.69 158.72 449.82 110.15 463.89 102.03 476.81 134.26 489.81 87.06 503.4 79.22"/><polygon points="557.75 47.83 557.82 70.14 538.6 81.24 538.88 181.22 526.36 188.44 526.08 88.46 506.95 99.51 506.89 77.2 557.75 47.83"/><path d="M419.37,27.12h0s.19-31.82,27.83-15.83,27.65,47.86,27.65,47.86l-9.22-5.33s0-21.28-18.43-31.92-18.43,10.64-18.43,10.64Z"/></svg>
