<svg xmlns="http://www.w3.org/2000/svg" viewBox="0 0 898 280"><polygon points="410.73 88.07 410.69 103.05 397.3 95.32 397.11 162.42 388.39 157.39 388.58 90.28 375.26 82.59 375.3 67.62 410.73 88.07"/><polygon points="444.62 107.64 444.57 122.61 424.9 111.25 424.85 129.16 442.7 139.46 442.65 154.04 424.8 143.74 424.75 163.25 444.43 174.61 444.38 189.72 416.18 173.44 416.42 91.36 444.62 107.64"/><polygon points="485.38 88.59 472.26 136.2 486.26 170.3 476.88 175.72 467.42 152.65 458.18 186.52 448.99 191.82 462.75 141.96 449.42 109.35 458.86 103.9 467.53 125.54 476.26 93.86 485.38 88.59"/><polygon points="521.87 67.52 521.91 82.5 509.01 89.95 509.2 157.06 500.8 161.91 500.61 94.8 487.77 102.21 487.72 87.24 521.87 67.52"/><path d="M429,53.62h0S429.1,32.26,447.66,43s18.56,32.12,18.56,32.12L460,71.54s0-14.29-12.37-21.43-12.37,7.14-12.37,7.14Z"/><path d="M358.06,229.18v7.67h-4.57v-22.1h9c4.68,0,7.77,2.52,7.77,7.24s-3.1,7.2-7.77,7.2Zm4.14-10.51h-4.14v6.59h4.14c2.38,0,3.53-1.37,3.53-3.28S364.58,218.67,362.2,218.67Z"/><path d="M379.38,237.21c-4.68,0-7.88-3.46-7.88-8.39s3.2-8.42,7.88-8.42,7.88,3.46,7.88,8.42S384.06,237.21,379.38,237.21Zm0-13c-2.23,0-3.46,1.94-3.46,4.64s1.22,4.61,3.46,4.61,3.46-1.94,3.46-4.61S381.61,224.18,379.38,224.18Z"/><path d="M399.86,225.15a4.46,4.46,0,0,0-2.23-.54,2.91,2.91,0,0,0-3.06,2.27v10H390.1V220.76h4.46v1.58a4.13,4.13,0,0,1,3.6-1.94,4.19,4.19,0,0,1,1.69.29Z"/><path d="M403.75,224.36H401.3v-3.6h2.45V216.4h4.43v4.36h3.53v3.6h-3.53v7.05a1.64,1.64,0,0,0,1.84,1.84,3.83,3.83,0,0,0,1.94-.54v4a6.77,6.77,0,0,1-2.88.5c-3.28,0-5.33-1.62-5.33-5.18Z"/><path d="M423.87,236.85V236a6.41,6.41,0,0,1-3.92,1.15c-3.24,0-6-1.87-6-5.22,0-3.06,2.74-5.15,6.23-5.15a7.48,7.48,0,0,1,3.67.94v-1.19a2.36,2.36,0,0,0-2.63-2.48,2.31,2.31,0,0,0-2.38,1.51h-4.25c.47-2.92,3.1-5.15,6.77-5.15,4.28,0,6.77,2.34,6.77,6.19v10.26Zm0-5.54a3.18,3.18,0,0,0-2.92-1.4c-1.4,0-2.84.61-2.84,2s1.44,2,2.84,2a3.18,3.18,0,0,0,2.92-1.4Z"/><path d="M436.26,236.85h-4.5v-23.4h4.5v8.64a5.54,5.54,0,0,1,4-1.69c4.68,0,7.31,3.81,7.31,8.42s-2.63,8.39-7.31,8.39a5.54,5.54,0,0,1-4-1.69Zm0-5.4a3.3,3.3,0,0,0,3,1.87c2.41,0,3.85-1.94,3.85-4.5s-1.44-4.54-3.85-4.54a3.41,3.41,0,0,0-3,1.87Z"/><path d="M454.94,236.85h-4.46v-23.4h4.46Z"/><path d="M472.76,231.59c-.58,3.42-3.1,5.62-7.13,5.62-4.68,0-7.81-3.42-7.81-8.39s3.24-8.42,7.74-8.42c4.72,0,7.31,3.28,7.31,8v1.37H462.14c.14,2.41,1.51,3.85,3.49,3.85a2.76,2.76,0,0,0,3-2Zm-10.51-4.54h6.23a2.82,2.82,0,0,0-2.88-3A3.31,3.31,0,0,0,462.25,227.05Z"/><path d="M482.33,214.74H501.2v4h-7.13v18.07h-4.64V218.78h-7.09Z"/><path d="M515.67,231.59c-.58,3.42-3.1,5.62-7.13,5.62-4.68,0-7.81-3.42-7.81-8.39s3.24-8.42,7.74-8.42c4.72,0,7.31,3.28,7.31,8v1.37H505.05c.14,2.41,1.51,3.85,3.49,3.85a2.76,2.76,0,0,0,3-2Zm-10.51-4.54h6.23a2.82,2.82,0,0,0-2.88-3A3.31,3.31,0,0,0,505.16,227.05Z"/><path d="M527.23,228.53l5.87,8.31h-4.93l-3.46-5-3.49,5h-4.68l5.79-8.21-5.47-7.88h4.93l3.1,4.57,3.17-4.57h4.68Z"/><path d="M536.3,224.36h-2.45v-3.6h2.45V216.4h4.43v4.36h3.53v3.6h-3.53v7.05a1.64,1.64,0,0,0,1.84,1.84,3.83,3.83,0,0,0,1.94-.54v4a6.77,6.77,0,0,1-2.88.5c-3.28,0-5.33-1.62-5.33-5.18Z"/></svg>
